<?xml version="1.0" encoding="UTF-8" standalone="no"?><!-- Generator: Gravit.io --><svg xmlns="http://www.w3.org/2000/svg" xmlns:xlink="http://www.w3.org/1999/xlink" style="isolation:isolate" viewBox="0 0 32 32" width="32pt" height="32pt"><defs><clipPath id="_clipPath_O32cNUALr697xsutDjOn9mFlWghJ97YY"><rect width="32" height="32"/></clipPath></defs><g clip-path="url(#_clipPath_O32cNUALr697xsutDjOn9mFlWghJ97YY)"><path d="M 31 1 L 31 1 C 31.976 1.976 31.852 3.684 30.723 4.812 L 4.544 30.991 C 3.416 32.12 1.707 32.244 0.732 31.268 L 0.732 31.268 C -0.244 30.293 -0.12 28.584 1.009 27.456 L 27.188 1.277 C 28.316 0.148 30.024 0.024 31 1 Z" style="stroke:none;fill:#FF0000;stroke-miterlimit:10;"/><path d="M 0.732 1 L 0.732 1 C -0.244 1.976 -0.12 3.684 1.009 4.812 L 27.188 30.991 C 28.316 32.12 30.024 32.244 31 31.268 L 31 31.268 C 31.976 30.293 31.852 28.584 30.723 27.456 L 4.544 1.277 C 3.416 0.148 1.707 0.024 0.732 1 Z" style="stroke:none;fill:#FF0000;stroke-miterlimit:10;"/></g></svg>