<?xml version="1.0" encoding="UTF-8" standalone="no"?><!-- Generator: Gravit.io --><svg xmlns="http://www.w3.org/2000/svg" xmlns:xlink="http://www.w3.org/1999/xlink" style="isolation:isolate" viewBox="0 0 32 32" width="32pt" height="32pt"><defs><clipPath id="_clipPath_4bvQEcPOHsGfJtUD5NXdVlAtLamh27dA"><rect width="32" height="32"/></clipPath></defs><g clip-path="url(#_clipPath_4bvQEcPOHsGfJtUD5NXdVlAtLamh27dA)"><path d="M 15.945 0 L 15.945 0 C 16.976 -0.004 17.817 0.962 17.821 2.155 L 17.917 29.832 C 17.921 31.025 17.087 31.996 16.055 32 L 16.055 32 C 15.024 32.004 14.183 31.038 14.179 29.845 L 14.083 2.168 C 14.079 0.975 14.913 0.004 15.945 0 Z" style="stroke:none;fill:#FF0000;stroke-miterlimit:10;"/><path d="M 0 16.055 L 0 16.055 C 0.004 17.087 0.975 17.921 2.168 17.917 L 29.845 17.821 C 31.038 17.817 32.004 16.976 32 15.945 L 32 15.945 C 31.996 14.913 31.025 14.079 29.832 14.083 L 2.155 14.179 C 0.962 14.183 -0.004 15.024 0 16.055 Z" style="stroke:none;fill:#FF0000;stroke-miterlimit:10;"/></g></svg>