<?xml version="1.0" encoding="UTF-8" standalone="no"?><!-- Generator: Gravit.io --><svg xmlns="http://www.w3.org/2000/svg" xmlns:xlink="http://www.w3.org/1999/xlink" style="isolation:isolate" viewBox="0 0 32 32" width="32pt" height="32pt"><defs><clipPath id="_clipPath_HLufpFzjXorXNBUc1NusJ3s5EtOPPUDU"><rect width="32" height="32"/></clipPath></defs><g clip-path="url(#_clipPath_HLufpFzjXorXNBUc1NusJ3s5EtOPPUDU)"><path d="M 17.296 0.714 L 18.108 1.578 C 19.003 2.531 19.003 4.078 18.108 5.031 L 4.724 19.285 C 3.83 20.238 2.377 20.238 1.482 19.285 L 0.67 18.42 C -0.224 17.467 -0.224 15.92 0.67 14.967 L 14.054 0.714 C 14.949 -0.239 16.402 -0.239 17.296 0.714 Z" style="stroke:none;fill:#FF0000;stroke-miterlimit:10;"/><path d="M 14.703 0.714 L 13.891 1.578 C 12.996 2.531 12.996 4.078 13.891 5.031 L 27.275 19.285 C 28.169 20.238 29.622 20.238 30.517 19.285 L 31.328 18.42 C 32.223 17.467 32.223 15.92 31.328 14.967 L 17.945 0.714 C 17.05 -0.239 15.597 -0.239 14.703 0.714 Z" style="stroke:none;fill:#FF0000;stroke-miterlimit:10;"/></g></svg>